<?xml version="1.0" encoding="UTF-8"?>
<svg id="Layer_1" xmlns="http://www.w3.org/2000/svg" version="1.1" viewBox="0 0 583.71 536.64">
  <!-- Generator: Adobe Illustrator 30.5.1, SVG Export Plug-In . SVG Version: 2.1.4 Build 3)  -->
  <defs>
    <style>
      .st0 {
        fill: #fcda7d;
      }
    </style>
  </defs>
  <g>
    <path class="st0" d="M139.95,353.15c7.58,1.66,15.14,3.45,22.75,4.96,15.34,3.05,30.82,5.18,46.39,6.71,17.19,1.69,34.39,2.9,51.67,3.09,2.79.03,3.16-.71,2.43-3.31-9.59-34.21-19.09-68.45-28.56-102.69-1.41-5.12-1.43-4.24-6.01-3.5-19.95,3.22-39.67,7.47-58.81,14-11.21,3.83-22.15,8.36-31.41,16.04-4.35,3.61-8.03,7.76-8.34,13.84-.32,6.35,3.34,10.64,7.81,14.32,7.85,6.47,17.13,10.27,26.64,13.42,13.9,4.61,28.09,8.14,42.6,10.18,7.27,1.02,14.63,2.02,21.93.2,7.32-1.82,11.32-6.26,12.27-13.29.35-.39.71-.39,1.07-.01,2.08,6.43,3.95,12.91,5.68,19.44.59,2.22.75,3.11-2.17,2.56-10.39-1.96-20.8-3.99-31.28-5.34-11.8-1.53-23.6-3.02-35.3-5.17-22.79-4.18-45.33-9.32-66.22-19.83-7.35-3.69-14.11-8.19-19.28-14.86-4.54-5.86-4.24-16.43,1.31-22.34,6.3-6.7,13.82-11.46,22.08-15.18,22.66-10.21,46.7-15.42,71.08-19.38,12.75-2.07,25.59-3.47,38.43-4.72,2.03-.2,2.31-.78,1.79-2.58-2.33-8.15-4.6-16.33-6.8-24.52-.49-1.84-1.41-2.38-3.24-2.17-10.32,1.18-20.65,2.29-30.97,3.39-10.33,1.1-20.66,2.2-30.99,3.22-2.73.27-5.46,1.08-8.28.52.06-1.27.98-1.35,1.68-1.67,32.97-15.14,66.32-29.4,99.6-43.85,4.16-1.81,4.01-1.79,4.54,2.87,1.64,14.33,3.4,28.64,5.12,42.96.68,5.71,1.44,11.42,1.99,17.15.21,2.11.87,2.61,3.05,2.4,4.01-.38,8.08-.36,12.12-.23,2.46.08,3.43-.51,3.14-3.17-1.15-10.53-2.14-21.07-3.2-31.61-.93-9.13-1.88-18.25-2.82-27.38-.42-4.12-.77-8.24-1.26-12.35-.19-1.65.31-2.58,1.88-3.28,9.13-4.08,18.23-8.24,27.33-12.4,1.47-.67,2.78-.66,4.31.05,8.8,4.09,17.63,8.11,26.49,12.04,1.93.86,2.75,1.86,2.51,4.1-1.43,13.03-2.72,26.08-4.05,39.12-.89,8.73-1.74,17.47-2.62,26.2-1.37,13.65-2.78,27.31-4.14,40.96-1.09,10.94-2.1,21.89-3.2,32.83-1.32,13.04-2.71,26.08-4.04,39.12-.7,6.83-1.27,13.67-2.02,20.49-.25,2.25.62,2.84,2.7,2.67,3.62-.31,7.25-.57,10.88-.64,2.15-.04,2.48-1.47,2.66-2.98.89-7.2,1.7-14.42,2.56-21.63,1.57-13.23,3.16-26.45,4.72-39.68,1.29-10.92,2.52-21.84,3.82-32.76,1.5-12.62,3.07-25.23,4.57-37.86,1.33-11.22,2.62-22.45,3.92-33.67.86-7.41,1.72-14.82,2.53-22.24.23-2.09.84-2.72,3.04-1.75,30.77,13.62,61.82,26.59,92.38,40.68,2.84,1.31,5.71,2.58,8.56,3.87.62.28,1.54.43,1.2,1.39-.25.72-1.04.44-1.6.39-4.72-.45-9.44-.91-14.16-1.41-10.73-1.14-21.46-2.29-32.18-3.45-6.72-.73-13.44-1.41-20.15-2.24-4.04-.5-4.15-.56-5.24,3.34-2.37,8.46-4.72,16.93-7.05,25.4-1.04,3.8-1.02,3.86,2.77,4.36,13.02,1.74,25.87,4.33,38.63,7.39,3.01.72,5.72,2.49,8.93,2.45-.47,1.62-1.57.79-2.5.65-.18.02-.36,0-.53-.06-.92-.72-2.13.09-3.07-.58-9.2-1.2-18.36-2.69-27.62-3.32-5.84-.4-11.68-.84-17.51-1.3-1.85-.15-2.03,1.13-2.4,2.45-5.56,20.04-11.15,40.07-16.72,60.11-4.36,15.66-8.7,31.32-13.06,46.98-1.08,3.88-1.08,4.07,2.74,3.64,32.17-3.57,64.05-8.54,94.36-20.6,8.4-3.34,16.33-7.52,23.34-13.32,2.37-1.95,4.4-4.21,6.01-6.77,4.51-7.16,3.7-14.79-2-21.17-4.3-4.81-9.43-8.52-15.07-11.58-13.72-7.44-28.3-12.33-43.78-14.35-8.36-1.09-16.71-1.19-24.86,1.58-4.74,1.61-8.71,4.21-11.38,8.55-.55.16-.83.04-.62-.6,1.45-5.34,2.92-10.68,4.34-16.03.6-2.25,2.36-1.6,3.72-1.43,7.2.92,14.4,1.8,21.56,3.01,17.11,2.89,34.26,5.63,51.03,10.24,15.62,4.3,30.96,9.31,44.91,17.82,3.9,2.38,7.54,5.12,10.67,8.44,9.93,10.55,7.37,23.1-4.83,32.4-10.03,7.64-21.46,12.47-33.25,16.52-19.63,6.74-39.88,10.94-60.36,14.1-19.67,3.03-39.42,5.07-59.29,6.14-3.12.17-6.25.45-9.38.43-1.96-.01-2.86.7-3.38,2.59-4.9,17.92-9.87,35.82-14.82,53.73-.4,1.46-.84,2.91-1.26,4.36-1.76-.96-.61-2.41-.61-3.67.93-8.31,1.85-16.63,2.8-24.94,1.11-9.71,2.18-19.43,3.43-29.12.29-2.22-.5-2.51-2.37-2.44-3.33.13-6.68.21-10,0-2.34-.15-3.27.72-3.47,2.93-.59,6.43-1.24,12.84-1.89,19.26-1.34,13.23-2.73,26.46-4.04,39.69-.95,9.53-1.81,19.07-2.71,28.61-.56.72.19,1.82-.9,2.63-1.14-1.35,0-3.12-.84-4.41-1.38-13.45-2.78-26.89-4.12-40.34-1.3-13.05-2.51-26.1-3.82-39.15-1.32-13.15-2.72-26.3-4.05-39.45-1.09-10.84-2.1-21.68-3.19-32.52-1.51-14.95-3.08-29.89-4.61-44.84-.5-4.92-1.05-9.84-1.4-14.77-.13-1.86-.56-2.78-2.65-2.58-4.52.44-9.05.72-13.57,1.05-1.52.11-1.92.66-1.72,2.33,2.59,21.22,5.04,42.46,7.57,63.68,2.16,18.12,4.4,36.23,6.56,54.36,2.46,20.63,4.87,41.27,7.28,61.9.11.92.39,1.92-.58,3.48-1.29-4.53-2.42-8.43-3.5-12.35-4.39-15.86-8.78-31.71-13.1-47.59-.56-2.05-1.5-2.94-3.75-3.06-20.26-1.08-40.41-3.24-60.45-6.47-19.47-3.14-38.67-7.28-57.36-13.63-2.95-1-5.98-1.86-8.71-3.43.37-1.95,1.66-.74,2.59-.76Z"/>
    <path class="st0" d="M224.18,162.61c10.73-9.98,21.46-19.96,32.18-29.95,15.16-14.12,30.32-28.23,45.43-42.41,1.45-1.36,2.28-.93,3.5.21,9.35,8.79,18.75,17.53,28.14,26.28,16.41,15.29,32.84,30.57,49.25,45.85-.03,1.01-.51,1.1-1.28.63-22.75-9.91-45.5-19.82-68.26-29.72-.28-.12-.6-.18-.84-.34-5.92-4.18-11.51-3.13-17.89-.23-22.86,10.41-45.98,20.25-69.01,30.3-.75.47-1.23.39-1.25-.62Z"/>
  </g>
  <path class="st0" d="M133.95,536.64s-82-52.81-107.83-147.29-8.29-175.5,37.41-243.88S190.85,24.52,285.33,18.91s181.72,33.8,240.56,109.26c58.83,75.46,57.61,158.88,57.61,158.88,0,0,8.09-96.43-75.18-190.97S320.23,0,289.05,0,155.4,1.72,65.84,106.95.72,339.86,10.78,369.65s40.6,119.68,123.17,166.99Z"/>
  <path class="st0" d="M439.97,259.8s-26.28-9.01-61.51-13.88l-1.57,5.57s39.6,4.77,63.07,8.31Z"/>
  <polygon class="st0" points="380.69 160.75 385.56 165.09 379.75 162.51 380.69 160.75"/>
  <polygon class="st0" points="226.61 162.72 222.64 164.48 224.63 162.2 226.61 162.72"/>
  <polygon class="st0" points="242.94 328.86 241.41 324.09 241.31 327.14 242.94 328.86"/>
  <path class="st0" d="M145.16,354.31s-10.4-2.3-16.86-4.55c0,0,9.25,4.75,15.07,6.69l1.79-2.13Z"/>
  <polygon class="st0" points="373.98 284.54 372.73 289.15 374.41 286.51 373.98 284.54"/>
  <polygon class="st0" points="324.02 435.61 322.21 441.79 322.49 434.42 324.02 435.61"/>
  <path class="st0" d="M330.46,425.28"/>
  <polygon class="st0" points="304.47 466.73 303.67 476.48 302.49 466.38 304.47 466.73"/>
  <polygon class="st0" points="283.57 438.11 284.96 442.8 284.76 436.49 283.57 438.11"/>
  <polygon class="st0" points="455.07 217.64 462.88 221.07 455.82 220.2 455.07 217.64"/>
  <polygon class="st0" points="151.6 217.7 144.25 220.89 152.41 220.2 151.6 217.7"/>
</svg>